<svg width="256" height="256" viewBox="0 0 256 256" fill="none" xmlns="http://www.w3.org/2000/svg">
<path d="M196 0H60C26.8629 0 0 26.8629 0 60V196C0 229.137 26.8629 256 60 256H196C229.137 256 256 229.137 256 196V60C256 26.8629 229.137 0 196 0Z" fill="#242938"/>
<path fill-rule="evenodd" clip-rule="evenodd" d="M104.352 73.8241C104.352 78.0972 104.859 82.2518 105.817 86.2309C72.149 93.8108 47 123.894 47 159.852C47 201.529 80.7859 235.315 122.463 235.315C164.14 235.315 197.926 201.529 197.926 159.852C197.926 144.542 193.367 130.297 185.532 118.4C200.243 109.023 210 92.5628 210 73.8241C210 44.6501 186.35 21 157.176 21C128.002 21 104.352 44.6501 104.352 73.8241ZM127 72.1852C127 76.6626 127.975 80.9123 129.724 84.7337C144.289 86.1242 157.646 91.6548 168.605 100.135C179.614 95.6324 187.37 84.8146 187.37 72.1852C187.37 55.5144 173.856 42 157.185 42C140.514 42 127 55.5144 127 72.1852ZM123.972 211.167C153.146 211.167 176.796 187.517 176.796 158.343C176.796 129.169 153.146 105.519 123.972 105.519C94.7983 105.519 71.1481 129.169 71.1481 158.343C71.1481 187.517 94.7983 211.167 123.972 211.167Z" fill="#FCFCFC"/>
<circle cx="123.972" cy="158.343" r="22.6389" fill="#F85C21"/>
</svg>
